<svg xmlns="http://www.w3.org/2000/svg" xmlns:xlink="http://www.w3.org/1999/xlink" width="900" zoomAndPan="magnify" viewBox="20 200 500 500" height="2000" preserveAspectRatio="xMidYMid meet" version="1.0"><defs><clipPath id="fe13191caf"><path d="M 0.246094 0 L 594.675781 0 L 594.675781 841.5 L 0.246094 841.5 Z M 0.246094 0 " clip-rule="nonzero"/></clipPath><clipPath id="823895c41c"><path d="M 93.179688 216.386719 L 502 216.386719 L 502 624.773438 L 93.179688 624.773438 Z M 93.179688 216.386719 " clip-rule="nonzero"/></clipPath><clipPath id="d2ef5900e5"><path d="M 367 497 L 502 497 L 502 624.773438 L 367 624.773438 Z M 367 497 " clip-rule="nonzero"/></clipPath></defs><g clip-path="url(#fe13191caf)"><path fill="#1a2a41" d="M 0.246094 0 L 595.214844 0 L 595.214844 841.5 L 0.246094 841.5 Z M 0.246094 0 " fill-opacity="1" fill-rule="nonzero"/><path fill="#1a2a41" d="M 0.246094 0 L 595.214844 0 L 595.214844 841.5 L 0.246094 841.5 Z M 0.246094 0 " fill-opacity="1" fill-rule="nonzero"/></g><g clip-path="url(#823895c41c)"><path fill="#ffbf00" d="M 494.855469 624.738281 L 99.582031 624.738281 C 96.058594 624.738281 93.207031 621.886719 93.207031 618.363281 L 93.207031 599.238281 C 93.207031 597.230469 94.148438 595.34375 95.753906 594.136719 L 120.050781 575.914062 L 132.128906 551.757812 C 133.464844 549.085938 136.476562 547.699219 139.378906 548.425781 L 183.894531 559.554688 L 195.335938 502.355469 C 195.679688 500.636719 196.71875 499.132812 198.207031 498.199219 L 249.210938 466.324219 C 249.28125 466.28125 249.355469 466.238281 249.425781 466.195312 L 292.125 441.796875 L 316.800781 380.105469 C 317.558594 378.207031 319.1875 376.785156 321.171875 376.289062 L 368.78125 364.386719 L 393.175781 291.203125 C 393.707031 289.609375 394.847656 288.289062 396.34375 287.53125 L 432.972656 268.988281 L 464.484375 231.722656 C 465.042969 231.0625 465.730469 230.523438 466.5 230.136719 L 492.003906 217.386719 C 493.980469 216.398438 496.328125 216.503906 498.207031 217.667969 C 500.085938 218.828125 501.230469 220.882812 501.230469 223.089844 L 501.230469 618.367188 C 501.230469 621.886719 498.378906 624.738281 494.855469 624.738281 Z M 105.957031 611.988281 L 488.480469 611.988281 L 488.480469 233.40625 L 473.378906 240.957031 L 441.875 278.210938 C 441.324219 278.863281 440.644531 279.394531 439.886719 279.78125 L 404.445312 297.722656 L 379.773438 371.742188 C 379.082031 373.808594 377.382812 375.382812 375.269531 375.910156 L 327.429688 387.871094 L 303.136719 448.597656 C 302.601562 449.933594 301.632812 451.050781 300.378906 451.765625 L 255.863281 477.203125 L 207.300781 507.554688 L 195.085938 568.613281 C 194.746094 570.320312 193.71875 571.816406 192.246094 572.746094 C 190.773438 573.679688 188.980469 573.96875 187.289062 573.546875 L 141.25 562.035156 L 130.785156 582.964844 C 130.34375 583.847656 129.699219 584.621094 128.90625 585.214844 L 105.957031 602.425781 Z M 105.957031 611.988281 " fill-opacity="1" fill-rule="nonzero"/></g><path fill="#ffbf00" d="M 405.601562 433.476562 C 403.328125 433.476562 401.171875 432.261719 400.027344 430.199219 L 368.148438 372.820312 C 366.441406 369.742188 367.550781 365.859375 370.628906 364.152344 C 373.703125 362.441406 377.585938 363.550781 379.296875 366.628906 L 408.714844 419.582031 L 448.476562 408.222656 C 451.863281 407.253906 455.390625 409.214844 456.355469 412.597656 C 457.324219 415.984375 455.363281 419.515625 451.980469 420.480469 L 407.351562 433.230469 C 406.769531 433.398438 406.179688 433.476562 405.601562 433.476562 Z M 405.601562 433.476562 " fill-opacity="1" fill-rule="nonzero"/><path fill="#ffbf00" d="M 297.214844 560.988281 C 296.378906 560.988281 295.527344 560.820312 294.707031 560.472656 C 291.472656 559.082031 289.972656 555.335938 291.359375 552.097656 L 309.574219 509.597656 L 291.113281 448.0625 C 290.101562 444.6875 292.015625 441.132812 295.386719 440.121094 C 298.761719 439.109375 302.3125 441.023438 303.324219 444.398438 L 322.453125 508.152344 C 322.878906 509.582031 322.792969 511.121094 322.203125 512.496094 L 303.078125 557.121094 C 302.042969 559.539062 299.6875 560.988281 297.214844 560.988281 Z M 297.214844 560.988281 " fill-opacity="1" fill-rule="nonzero"/><path fill="#ffbf00" d="M 284.464844 356.972656 C 283.5625 356.972656 282.65625 356.78125 281.804688 356.390625 C 279.542969 355.347656 278.09375 353.085938 278.09375 350.597656 L 278.09375 312.34375 C 278.09375 308.824219 280.945312 305.96875 284.46875 305.96875 L 329.097656 305.96875 C 331.765625 305.96875 334.148438 307.628906 335.074219 310.132812 C 336 312.636719 335.269531 315.449219 333.246094 317.183594 L 288.617188 355.4375 C 287.4375 356.449219 285.960938 356.972656 284.464844 356.972656 Z M 290.84375 318.71875 L 290.84375 336.734375 L 311.859375 318.71875 Z M 290.84375 318.71875 " fill-opacity="1" fill-rule="nonzero"/><path fill="#ffbf00" d="M 278.96875 415.757812 C 277.320312 415.757812 275.6875 415.121094 274.457031 413.890625 L 134.707031 274.140625 C 132.910156 272.34375 132.351562 269.648438 133.289062 267.285156 C 134.222656 264.921875 136.472656 263.339844 139.011719 263.261719 C 146.710938 263 174.285156 271.472656 203.152344 292.132812 C 229.925781 311.292969 265.863281 346.851562 285.042969 407.460938 C 285.929688 410.261719 284.789062 413.304688 282.277344 414.832031 C 281.25 415.453125 280.105469 415.757812 278.96875 415.757812 Z M 161.6875 283.085938 L 262.125 383.527344 C 243.378906 343.132812 216.921875 317.777344 196.304688 302.910156 C 183.582031 293.738281 171.480469 287.335938 161.6875 283.085938 Z M 161.6875 283.085938 " fill-opacity="1" fill-rule="nonzero"/><path fill="#ffbf00" d="M 124 449.003906 C 122.371094 449.003906 120.738281 448.382812 119.492188 447.136719 L 101.460938 429.105469 C 100.265625 427.910156 99.59375 426.289062 99.59375 424.597656 C 99.59375 422.90625 100.265625 421.285156 101.460938 420.089844 L 195.566406 325.984375 C 198.058594 323.492188 202.09375 323.492188 204.582031 325.984375 C 207.074219 328.472656 207.074219 332.507812 204.582031 335 L 114.984375 424.597656 L 124 433.613281 L 213.601562 344.015625 C 216.089844 341.527344 220.125 341.527344 222.617188 344.015625 C 225.105469 346.503906 225.105469 350.542969 222.617188 353.03125 L 128.507812 447.136719 C 127.265625 448.382812 125.632812 449.003906 124 449.003906 Z M 124 449.003906 " fill-opacity="1" fill-rule="nonzero"/><path fill="#ffbf00" d="M 236.140625 336.867188 C 234.507812 336.867188 232.875 336.246094 231.632812 335 C 229.140625 332.507812 229.140625 328.472656 231.632812 325.984375 L 245.15625 312.457031 L 236.140625 303.441406 L 222.617188 316.96875 C 220.125 319.457031 216.089844 319.457031 213.601562 316.96875 C 211.109375 314.476562 211.109375 310.441406 213.601562 307.953125 L 231.632812 289.917969 C 234.121094 287.429688 238.15625 287.429688 240.648438 289.917969 L 258.679688 307.953125 C 261.167969 310.441406 261.167969 314.476562 258.679688 316.96875 L 240.648438 335 C 239.402344 336.246094 237.773438 336.867188 236.140625 336.867188 Z M 236.140625 336.867188 " fill-opacity="1" fill-rule="nonzero"/><g clip-path="url(#d2ef5900e5)"><path fill="#ffbf00" d="M 373.71875 624.742188 C 372.601562 624.742188 371.46875 624.449219 370.441406 623.832031 C 367.425781 622.019531 366.445312 618.105469 368.257812 615.085938 L 406.507812 551.332031 C 407.339844 549.945312 408.671875 548.925781 410.226562 548.480469 L 450.234375 537.050781 L 450.234375 516.359375 C 450.234375 513.613281 451.988281 511.175781 454.589844 510.308594 L 492.839844 497.558594 C 496.183594 496.445312 499.789062 498.25 500.90625 501.589844 C 502.019531 504.929688 500.21875 508.542969 496.878906 509.65625 L 462.988281 520.953125 L 462.988281 541.859375 C 462.988281 544.707031 461.09375 547.207031 458.359375 547.988281 L 416.148438 560.046875 L 379.191406 621.644531 C 377.996094 623.636719 375.882812 624.742188 373.71875 624.742188 Z M 373.71875 624.742188 " fill-opacity="1" fill-rule="nonzero"/></g></svg>