<svg xmlns="http://www.w3.org/2000/svg" xmlns:xlink="http://www.w3.org/1999/xlink" width="900" zoomAndPan="magnify" viewBox="20 200 500 500" height="2000" preserveAspectRatio="xMidYMid meet" version="1.0"><defs><clipPath id="ce0bc985a0"><path d="M 0.246094 0 L 594.675781 0 L 594.675781 841.5 L 0.246094 841.5 Z M 0.246094 0 " clip-rule="nonzero"/></clipPath><clipPath id="46d6e872cd"><path d="M 121.757812 329 L 453 329 L 453 589 L 121.757812 589 Z M 121.757812 329 " clip-rule="nonzero"/></clipPath><clipPath id="2a6fff9896"><path d="M 164 418 L 335 418 L 335 589.691406 L 164 589.691406 Z M 164 418 " clip-rule="nonzero"/></clipPath><clipPath id="44d35ec13b"><path d="M 276 329 L 370 329 L 370 589.691406 L 276 589.691406 Z M 276 329 " clip-rule="nonzero"/></clipPath><clipPath id="181d9bed8e"><path d="M 371 415 L 453 415 L 453 589.691406 L 371 589.691406 Z M 371 415 " clip-rule="nonzero"/></clipPath><clipPath id="9e76a06da0"><path d="M 413 462 L 453 462 L 453 589.691406 L 413 589.691406 Z M 413 462 " clip-rule="nonzero"/></clipPath><clipPath id="f15ce6dcdd"><path d="M 121.757812 308 L 171 308 L 171 568 L 121.757812 568 Z M 121.757812 308 " clip-rule="nonzero"/></clipPath></defs><g clip-path="url(#ce0bc985a0)"><path fill="#1a2a41" d="M 0.246094 0 L 595.214844 0 L 595.214844 841.5 L 0.246094 841.5 Z M 0.246094 0 " fill-opacity="1" fill-rule="nonzero"/><path fill="#1a2a41" d="M 0.246094 0 L 595.214844 0 L 595.214844 841.5 L 0.246094 841.5 Z M 0.246094 0 " fill-opacity="1" fill-rule="nonzero"/></g><path fill="#ffbf00" d="M 167.707031 537.050781 C 167.707031 473.90625 167.707031 395.886719 167.707031 332.675781 C 166.800781 304.339844 125.71875 304.277344 124.816406 332.675781 C 124.816406 332.675781 124.816406 354.15625 124.816406 354.15625 L 124.816406 564.609375 C 125.589844 536.339844 166.929688 536.339844 167.707031 564.609375 Z M 167.707031 537.050781 " fill-opacity="1" fill-rule="evenodd"/><path fill="#ffbf00" d="M 305.832031 351.117188 C 305.832031 390.839844 338.050781 422.992188 377.707031 422.992188 C 472.808594 419.175781 473.457031 283.316406 377.707031 279.175781 C 337.726562 279.046875 305.507812 312.429688 305.832031 351.117188 Z M 377.707031 407.269531 C 346.71875 407.269531 321.554688 382.105469 321.554688 351.117188 C 324.527344 276.652344 430.886719 276.652344 433.863281 351.117188 C 433.863281 382.167969 408.699219 407.269531 377.707031 407.269531 Z M 377.707031 407.269531 " fill-opacity="1" fill-rule="evenodd"/><path fill="#ffbf00" d="M 374.148438 321.550781 L 352.734375 374.40625 C 352.414062 375.054688 353.316406 375.765625 353.902344 375.3125 L 375.574219 360.367188 C 376.933594 359.460938 378.613281 359.460938 379.90625 360.367188 L 401.582031 375.3125 C 402.164062 375.765625 403.070312 375.054688 402.746094 374.40625 L 381.265625 321.550781 C 380.101562 318.445312 375.25 318.445312 374.148438 321.550781 Z M 374.148438 321.550781 " fill-opacity="1" fill-rule="evenodd"/><g clip-path="url(#46d6e872cd)"><path fill="#ffbf00" d="M 449.457031 589 L 146.230469 589 C 132.773438 589 121.773438 578.003906 121.773438 564.546875 L 121.773438 354.15625 C 121.773438 352.472656 123.132812 351.179688 124.75 351.179688 C 126.433594 351.179688 127.726562 352.539062 127.726562 354.15625 L 127.726562 564.609375 C 127.726562 574.765625 136.007812 583.046875 146.164062 583.046875 L 446.542969 583.046875 L 446.542969 335.589844 C 443.117188 335.007812 443.632812 329.570312 447.125 329.636719 C 449.457031 329.507812 452.429688 329.570312 452.496094 332.613281 L 452.496094 585.832031 C 452.5625 587.578125 451.136719 589 449.457031 589 Z M 308.226562 335.652344 L 167.707031 335.652344 C 163.824219 335.652344 163.761719 329.703125 167.707031 329.636719 L 308.226562 329.636719 C 312.042969 329.703125 312.171875 335.652344 308.226562 335.652344 Z M 308.226562 335.652344 " fill-opacity="1" fill-rule="nonzero"/></g><path fill="#ffbf00" d="M 241.265625 589 C 239.390625 589 237.902344 587.253906 238.289062 585.441406 C 244.566406 553.289062 238.03125 522.363281 217.78125 546.300781 C 198.242188 570.367188 185.824219 578.324219 167.644531 588.613281 C 166.21875 589.386719 164.34375 588.9375 163.566406 587.511719 C 162.726562 586.089844 163.242188 584.210938 164.667969 583.4375 C 182.199219 573.472656 194.234375 565.773438 213.058594 542.550781 C 223.28125 529.933594 231.238281 531.035156 235.054688 532.84375 C 245.859375 537.957031 249.546875 559.5625 244.113281 586.671875 C 243.917969 588.03125 242.6875 589 241.265625 589 Z M 241.265625 589 " fill-opacity="1" fill-rule="nonzero"/><path fill="#ffbf00" d="M 167.707031 384.820312 C 165.054688 384.886719 163.632812 381.199219 165.765625 379.515625 C 178.058594 369.164062 194.945312 352.34375 205.359375 331.320312 C 206.070312 329.832031 207.882812 329.25 209.371094 329.960938 C 210.859375 330.671875 211.441406 332.484375 210.730469 333.972656 C 198.957031 356.292969 182.394531 375.117188 167.707031 384.820312 Z M 167.707031 384.820312 " fill-opacity="1" fill-rule="nonzero"/><path fill="#ffbf00" d="M 167.707031 455.40625 C 164.859375 455.46875 163.566406 451.394531 166.089844 449.90625 C 225.675781 410.699219 203.417969 379.710938 247.800781 330.738281 C 250.324219 327.824219 254.917969 331.773438 252.328125 334.683594 C 208.402344 382.945312 230.007812 418.074219 167.707031 455.40625 Z M 167.707031 455.40625 " fill-opacity="1" fill-rule="nonzero"/><g clip-path="url(#2a6fff9896)"><path fill="#ffbf00" d="M 331.96875 589 C 328.800781 588.417969 289.464844 567.84375 313.59375 492.539062 C 323.171875 463.101562 318.640625 439.425781 301.5625 429.269531 C 282.671875 418.074219 254.074219 426.550781 232.015625 449.90625 C 215.582031 467.308594 194.425781 483.03125 169.132812 496.808594 C 167.707031 497.585938 165.832031 497.066406 165.054688 495.582031 C 164.277344 494.15625 164.796875 492.28125 166.285156 491.503906 C 191.0625 478.046875 211.699219 462.652344 227.679688 445.765625 C 251.683594 420.339844 283.316406 411.410156 304.601562 424.09375 C 324.335938 435.800781 329.832031 462.066406 319.289062 494.351562 C 296.773438 563.703125 331.773438 582.53125 333.261719 583.242188 C 336.109375 584.601562 335.007812 589.128906 331.96875 589 Z M 331.96875 589 " fill-opacity="1" fill-rule="nonzero"/></g><g clip-path="url(#44d35ec13b)"><path fill="#ffbf00" d="M 366.582031 589 C 309.585938 558.65625 343.871094 508.777344 349.953125 463.878906 C 355.839844 424.222656 339.085938 416.652344 313.726562 405.199219 C 299.039062 399.378906 279.953125 389.09375 277.238281 373.886719 C 273.226562 358.230469 281.378906 341.863281 288.882812 330.929688 C 291.082031 327.761719 296.0625 331.125 293.796875 334.359375 C 273.417969 364.25 279.046875 386.308594 316.183594 399.765625 C 341.996094 411.410156 362.375 420.597656 355.839844 464.785156 C 350.472656 508.066406 316.960938 554.648438 368.070312 583.4375 C 370.722656 584.796875 369.558594 589.195312 366.582031 589 Z M 366.582031 589 " fill-opacity="1" fill-rule="nonzero"/></g><g clip-path="url(#181d9bed8e)"><path fill="#ffbf00" d="M 407.664062 589 C 382.429688 580.203125 369.363281 552.898438 371.820312 518.160156 C 374.992188 475.589844 402.488281 426.679688 448.875 415.746094 C 450.492188 415.359375 452.109375 416.394531 452.496094 417.945312 C 452.882812 419.5625 451.847656 421.179688 450.296875 421.570312 C 406.691406 431.855469 380.8125 478.175781 377.835938 518.613281 C 375.507812 550.378906 387.089844 574.574219 408.828125 583.242188 C 411.804688 584.277344 410.832031 589.128906 407.664062 589 Z M 407.664062 589 " fill-opacity="1" fill-rule="nonzero"/></g><g clip-path="url(#9e76a06da0)"><path fill="#ffbf00" d="M 449.457031 589 C 397.894531 562.347656 405.851562 498.101562 447.644531 463.167969 C 450.554688 460.644531 454.566406 465.171875 451.527344 467.695312 C 413.226562 500.238281 404.6875 556.71875 451.007812 583.371094 C 453.597656 584.859375 452.367188 589.128906 449.457031 589 Z M 449.457031 589 " fill-opacity="1" fill-rule="nonzero"/></g><path fill="#ffbf00" d="M 241.914062 414.257812 C 225.546875 412.125 230.980469 387.214844 247.089844 382.105469 C 260.285156 375.957031 276.203125 388.445312 268.890625 401.835938 C 266.757812 405.71875 262.550781 406.753906 258.476562 407.789062 C 252.910156 408.046875 246.828125 414.386719 241.914062 414.257812 Z M 254.722656 386.570312 C 253.105469 386.570312 251.292969 386.890625 249.351562 387.667969 C 237.578125 392.328125 235.378906 404.230469 240.878906 408.046875 C 242.949219 408.757812 244.890625 407.269531 246.441406 406.171875 C 251.421875 401.773438 261.0625 402.9375 263.910156 398.472656 C 266.691406 392.328125 261.644531 386.570312 254.722656 386.570312 Z M 248.1875 384.886719 Z M 248.1875 384.886719 " fill-opacity="1" fill-rule="nonzero"/><path fill="#ffbf00" d="M 277.691406 589 C 276.71875 589 275.75 588.546875 275.167969 587.640625 C 259.121094 562.992188 268.632812 529.480469 276.332031 502.566406 C 281.507812 484.453125 285.96875 468.796875 278.917969 466.144531 C 256.988281 458.121094 228.390625 501.660156 206.652344 517.253906 C 193.261719 528.445312 181.230469 535.625 168.613281 539.898438 C 167.0625 540.414062 165.3125 539.574219 164.796875 538.019531 C 164.277344 536.46875 165.121094 534.722656 166.671875 534.203125 C 187.890625 527.929688 212.800781 504.574219 228.910156 488.335938 C 248.382812 469.183594 263.714844 454.046875 280.988281 460.515625 C 293.214844 465.109375 288.300781 482.316406 282.023438 504.183594 C 274.714844 529.933594 265.527344 561.957031 280.148438 584.34375 C 281.570312 586.28125 280.019531 589.066406 277.691406 589 Z M 277.691406 589 " fill-opacity="1" fill-rule="nonzero"/><g clip-path="url(#f15ce6dcdd)"><path fill="#ffbf00" d="M 167.707031 567.519531 C 166.027344 567.519531 164.730469 566.164062 164.730469 564.546875 C 164.730469 554.386719 156.449219 546.105469 146.292969 546.105469 C 136.136719 546.105469 127.855469 554.386719 127.855469 564.546875 C 127.855469 568.425781 121.839844 568.492188 121.839844 564.546875 C 121.839844 564.546875 121.839844 332.675781 121.839844 332.675781 C 122.808594 300.460938 169.714844 300.265625 170.75 332.675781 C 170.75 332.675781 170.75 564.546875 170.75 564.546875 C 170.683594 566.226562 169.390625 567.519531 167.707031 567.519531 Z M 146.230469 314.175781 C 136.070312 314.175781 127.789062 322.457031 127.789062 332.613281 L 127.789062 548.5 C 136.589844 537.4375 155.933594 537.4375 164.730469 548.5 L 164.730469 332.675781 C 164.730469 322.457031 156.449219 314.175781 146.230469 314.175781 Z M 146.230469 314.175781 " fill-opacity="1" fill-rule="nonzero"/></g><path fill="#ffbf00" d="M 377.707031 426.03125 C 336.433594 426.03125 302.792969 392.457031 302.792969 351.117188 C 306.933594 251.742188 448.484375 251.808594 452.5625 351.117188 C 452.5625 392.457031 418.984375 426.03125 377.707031 426.03125 Z M 377.707031 282.214844 C 339.730469 282.214844 308.808594 313.140625 308.808594 351.117188 C 312.558594 442.53125 442.855469 442.464844 446.609375 351.117188 C 446.609375 313.140625 415.683594 282.214844 377.707031 282.214844 Z M 377.707031 282.214844 " fill-opacity="1" fill-rule="nonzero"/><path fill="#ffbf00" d="M 377.707031 410.3125 C 345.101562 410.3125 318.578125 383.785156 318.578125 351.179688 C 321.8125 272.703125 433.605469 272.769531 436.839844 351.179688 C 436.839844 383.785156 410.316406 410.3125 377.707031 410.3125 Z M 377.707031 298 C 348.402344 298 324.59375 321.875 324.59375 351.179688 C 327.375 421.632812 428.105469 421.632812 430.886719 351.179688 C 430.824219 321.808594 407.015625 298 377.707031 298 Z M 377.707031 298 " fill-opacity="1" fill-rule="nonzero"/><path fill="#ffbf00" d="M 401.96875 378.480469 C 401.710938 379.839844 378.808594 363.085938 378.160156 362.890625 C 377.835938 362.695312 377.515625 362.695312 377.191406 362.890625 L 355.519531 377.835938 C 352.605469 379.96875 348.402344 376.734375 349.890625 373.304688 L 371.304688 320.449219 C 373.375 314.886719 381.914062 314.820312 383.984375 320.449219 L 405.398438 373.304688 C 406.5625 375.636719 404.558594 378.609375 401.96875 378.480469 Z M 399.898438 375.570312 Z M 352.152344 372.917969 Z M 377.707031 356.746094 C 380.492188 355.96875 393.6875 366.707031 397.117188 368.648438 C 397.117188 368.648438 378.484375 322.648438 378.484375 322.648438 C 378.226562 321.9375 377.191406 321.9375 376.933594 322.648438 L 358.300781 368.648438 C 362.050781 366.511719 374.796875 356.03125 377.707031 356.746094 Z M 377.707031 356.746094 " fill-opacity="1" fill-rule="nonzero"/><path fill="#ffbf00" d="M 377.707031 307.1875 C 376.027344 307.1875 374.734375 305.828125 374.734375 304.210938 L 374.734375 295.023438 C 374.734375 293.34375 376.089844 292.050781 377.707031 292.050781 C 379.324219 292.050781 380.683594 293.40625 380.683594 295.023438 L 380.683594 304.210938 C 380.683594 305.894531 379.324219 307.1875 377.707031 307.1875 Z M 377.707031 307.1875 " fill-opacity="1" fill-rule="nonzero"/><path fill="#ffbf00" d="M 330.738281 354.15625 L 321.554688 354.15625 C 317.605469 354.15625 317.605469 348.203125 321.554688 348.140625 L 330.738281 348.140625 C 334.6875 348.140625 334.6875 354.15625 330.738281 354.15625 Z M 330.738281 354.15625 " fill-opacity="1" fill-rule="nonzero"/><path fill="#ffbf00" d="M 377.707031 410.3125 C 376.027344 410.3125 374.734375 408.953125 374.734375 407.335938 L 374.734375 398.148438 C 374.734375 396.46875 376.089844 395.171875 377.707031 395.171875 C 379.324219 395.171875 380.683594 396.53125 380.683594 398.148438 L 380.683594 407.335938 C 380.683594 408.953125 379.324219 410.3125 377.707031 410.3125 Z M 377.707031 410.3125 " fill-opacity="1" fill-rule="nonzero"/><path fill="#ffbf00" d="M 433.863281 354.15625 L 424.675781 354.15625 C 420.730469 354.15625 420.730469 348.203125 424.675781 348.140625 C 424.675781 348.140625 433.863281 348.140625 433.863281 348.140625 C 437.746094 348.140625 437.746094 354.15625 433.863281 354.15625 Z M 433.863281 354.15625 " fill-opacity="1" fill-rule="nonzero"/></svg>