<svg xmlns="http://www.w3.org/2000/svg" xmlns:xlink="http://www.w3.org/1999/xlink" width="900" zoomAndPan="magnify" viewBox="20 200 500 500" height="2000" preserveAspectRatio="xMidYMid meet" version="1.0"><defs><clipPath id="d1cb8140d8"><path d="M 0.246094 0 L 594.675781 0 L 594.675781 841.5 L 0.246094 841.5 Z M 0.246094 0 " clip-rule="nonzero"/></clipPath><clipPath id="a83a9f53e6"><path d="M 110.332031 397 L 191 397 L 191 495 L 110.332031 495 Z M 110.332031 397 " clip-rule="nonzero"/></clipPath><clipPath id="a73d1ea981"><path d="M 221 285.253906 L 240 285.253906 L 240 319 L 221 319 Z M 221 285.253906 " clip-rule="nonzero"/></clipPath><clipPath id="8da29c8518"><path d="M 292 394 L 480 394 L 480 555.765625 L 292 555.765625 Z M 292 394 " clip-rule="nonzero"/></clipPath><clipPath id="1db1573128"><path d="M 368 397 L 484.996094 397 L 484.996094 549 L 368 549 Z M 368 397 " clip-rule="nonzero"/></clipPath></defs><g clip-path="url(#d1cb8140d8)"><path fill="#1a2a41" d="M 0.246094 0 L 595.214844 0 L 595.214844 841.5 L 0.246094 841.5 Z M 0.246094 0 " fill-opacity="1" fill-rule="nonzero"/><path fill="#1a2a41" d="M 0.246094 0 L 595.214844 0 L 595.214844 841.5 L 0.246094 841.5 Z M 0.246094 0 " fill-opacity="1" fill-rule="nonzero"/></g><path fill="#ffbf00" d="M 115.367188 394.757812 C 152.066406 412.941406 181.632812 439.078125 206.582031 469.671875 C 211.441406 465.695312 216.417969 461.902344 221.488281 458.257812 C 191.375 432.003906 156.289062 409.90625 115.367188 394.757812 Z M 115.367188 394.757812 " fill-opacity="1" fill-rule="evenodd"/><path fill="#ffbf00" d="M 120.015625 389.597656 C 163.269531 400.496094 200.210938 422.441406 233.113281 450.246094 C 239.488281 446.058594 245.984375 442.082031 252.660156 438.289062 C 213.777344 414.429688 169.703125 396.671875 120.015625 389.597656 Z M 120.015625 389.597656 " fill-opacity="1" fill-rule="evenodd"/><path fill="#ffbf00" d="M 132.851562 382.464844 C 180.722656 394.546875 226.921875 409.207031 269.628906 429.273438 C 278.738281 424.75 288.054688 420.5625 297.617188 416.734375 C 248.261719 396.941406 192.894531 386.226562 132.851562 382.464844 Z M 132.851562 382.464844 " fill-opacity="1" fill-rule="evenodd"/><g clip-path="url(#a83a9f53e6)"><path fill="#ffbf00" d="M 110.332031 397.824219 C 140.472656 425.355469 161.597656 458.472656 177.078125 494.625 C 181.480469 490.253906 185.972656 486.003906 190.617188 481.90625 C 169.582031 450.792969 143.265625 422.078125 110.332031 397.824219 Z M 110.332031 397.824219 " fill-opacity="1" fill-rule="evenodd"/></g><path fill="#ffbf00" d="M 210.195312 347.074219 C 212.746094 358.332031 219 364.617188 229.136719 365.617188 C 227.46875 356.480469 221.761719 349.925781 210.195312 347.074219 Z M 210.652344 333.167969 C 213.203125 344.460938 219.453125 350.714844 229.621094 351.714844 C 227.953125 342.609375 222.246094 336.023438 210.652344 333.167969 Z M 216.085938 315.835938 C 215.507812 327.402344 219.820312 335.113281 229.351562 338.8125 C 230.199219 329.585938 226.464844 321.726562 216.085938 315.835938 Z M 216.085938 315.835938 " fill-opacity="1" fill-rule="evenodd"/><path fill="#ffbf00" d="M 251.050781 347.074219 C 248.53125 358.332031 242.28125 364.617188 232.109375 365.617188 C 233.78125 356.480469 239.488281 349.925781 251.050781 347.074219 Z M 250.597656 333.167969 C 248.046875 344.460938 241.792969 350.714844 231.625 351.714844 C 233.328125 342.609375 239 336.023438 250.597656 333.167969 Z M 245.164062 315.835938 C 245.773438 327.402344 241.429688 335.113281 231.898438 338.8125 C 231.082031 329.585938 234.785156 321.726562 245.164062 315.835938 Z M 245.164062 315.835938 " fill-opacity="1" fill-rule="evenodd"/><g clip-path="url(#a73d1ea981)"><path fill="#ffbf00" d="M 223.582031 292.464844 C 224.644531 292.464844 225.496094 293.34375 225.496094 294.378906 L 225.496094 316.382812 C 225.496094 317.445312 224.644531 318.296875 223.582031 318.296875 C 222.550781 318.296875 221.671875 317.449219 221.671875 316.382812 L 221.671875 294.378906 C 221.671875 293.34375 222.550781 292.464844 223.582031 292.464844 Z M 230.777344 285.300781 C 231.808594 285.300781 232.691406 286.152344 232.691406 287.214844 L 232.691406 316.386719 C 232.691406 317.449219 231.808594 318.296875 230.777344 318.296875 C 229.714844 318.296875 228.867188 317.449219 228.867188 316.386719 L 228.867188 287.214844 C 228.867188 286.152344 229.714844 285.300781 230.777344 285.300781 Z M 237.457031 292.464844 C 238.519531 292.464844 239.367188 293.34375 239.367188 294.378906 L 239.367188 316.382812 C 239.367188 317.445312 238.519531 318.296875 237.457031 318.296875 C 236.394531 318.296875 235.542969 317.449219 235.542969 316.382812 L 235.542969 294.378906 C 235.542969 293.34375 236.394531 292.464844 237.457031 292.464844 Z M 237.457031 292.464844 " fill-opacity="1" fill-rule="evenodd"/></g><path fill="#ffbf00" d="M 227.011719 368.929688 L 234.175781 368.929688 L 234.175781 404.320312 L 227.011719 404.320312 Z M 227.011719 368.929688 " fill-opacity="1" fill-rule="nonzero"/><path fill="#ffbf00" d="M 255.242188 359.125 C 257.761719 370.417969 264.015625 376.667969 274.183594 377.671875 C 272.515625 368.5625 266.808594 361.976562 255.242188 359.125 Z M 255.699219 345.222656 C 258.246094 356.511719 264.5 362.796875 274.640625 363.796875 C 272.96875 354.660156 267.292969 348.105469 255.699219 345.222656 Z M 261.128906 327.917969 C 260.523438 339.453125 264.863281 347.195312 274.394531 350.867188 C 275.214844 341.640625 271.511719 333.777344 261.128906 327.917969 Z M 261.128906 327.917969 " fill-opacity="1" fill-rule="evenodd"/><path fill="#ffbf00" d="M 296.097656 359.125 C 293.546875 370.417969 287.296875 376.667969 277.15625 377.671875 C 278.828125 368.5625 284.503906 361.976562 296.097656 359.125 Z M 295.613281 345.222656 C 293.09375 356.511719 286.839844 362.796875 276.671875 363.796875 C 278.34375 354.660156 284.046875 348.105469 295.613281 345.222656 Z M 290.210938 327.917969 C 290.789062 339.453125 286.445312 347.195312 276.945312 350.867188 C 276.097656 341.640625 279.828125 333.777344 290.210938 327.917969 Z M 290.210938 327.917969 " fill-opacity="1" fill-rule="evenodd"/><path fill="#ffbf00" d="M 268.628906 304.546875 C 269.691406 304.546875 270.539062 305.394531 270.539062 306.457031 L 270.539062 328.433594 C 270.539062 329.496094 269.691406 330.347656 268.628906 330.347656 C 267.566406 330.347656 266.71875 329.496094 266.71875 328.433594 L 266.71875 306.457031 C 266.71875 305.394531 267.566406 304.546875 268.628906 304.546875 Z M 275.792969 297.382812 C 276.851562 297.382812 277.703125 298.234375 277.703125 299.296875 L 277.703125 328.433594 C 277.703125 329.496094 276.851562 330.347656 275.792969 330.347656 C 274.761719 330.347656 273.878906 329.496094 273.878906 328.433594 L 273.878906 299.296875 C 273.878906 298.234375 274.761719 297.382812 275.792969 297.382812 Z M 282.5 304.546875 C 283.5625 304.546875 284.414062 305.394531 284.414062 306.457031 L 284.414062 328.433594 C 284.414062 329.496094 283.5625 330.347656 282.5 330.347656 C 281.4375 330.347656 280.589844 329.496094 280.589844 328.433594 L 280.589844 306.457031 C 280.589844 305.394531 281.4375 304.546875 282.5 304.546875 Z M 282.5 304.546875 " fill-opacity="1" fill-rule="evenodd"/><path fill="#ffbf00" d="M 272.058594 381.007812 L 279.222656 381.007812 L 279.222656 416.402344 L 272.058594 416.402344 Z M 272.058594 381.007812 " fill-opacity="1" fill-rule="nonzero"/><path fill="#ffbf00" d="M 324.269531 354.75 C 326.789062 366.042969 333.039062 372.296875 343.210938 373.296875 C 341.539062 364.191406 335.832031 357.605469 324.269531 354.75 Z M 324.722656 340.851562 C 327.273438 352.140625 333.527344 358.394531 343.664062 359.398438 C 341.996094 350.292969 336.320312 343.703125 324.722656 340.851562 Z M 330.15625 323.546875 C 329.550781 335.082031 333.890625 342.792969 343.390625 346.496094 C 344.242188 337.269531 340.539062 329.40625 330.15625 323.546875 Z M 330.15625 323.546875 " fill-opacity="1" fill-rule="evenodd"/><path fill="#ffbf00" d="M 365.125 354.75 C 362.574219 366.042969 356.324219 372.296875 346.183594 373.296875 C 347.851562 364.191406 353.53125 357.605469 365.125 354.75 Z M 364.636719 340.851562 C 362.121094 352.140625 355.867188 358.394531 345.695312 359.398438 C 347.367188 350.292969 353.074219 343.703125 364.636719 340.851562 Z M 359.234375 323.546875 C 359.8125 335.082031 355.472656 342.792969 345.972656 346.496094 C 345.121094 337.269531 348.855469 329.40625 359.234375 323.546875 Z M 359.234375 323.546875 " fill-opacity="1" fill-rule="evenodd"/><path fill="#ffbf00" d="M 337.652344 300.175781 C 338.714844 300.175781 339.566406 301.023438 339.566406 302.089844 L 339.566406 324.0625 C 339.566406 325.125 338.71875 325.976562 337.652344 325.976562 C 336.589844 325.976562 335.742188 325.125 335.742188 324.0625 L 335.742188 302.089844 C 335.742188 301.027344 336.589844 300.175781 337.652344 300.175781 Z M 344.820312 292.980469 C 345.882812 292.980469 346.730469 293.863281 346.730469 294.894531 L 346.730469 324.066406 C 346.730469 325.128906 345.882812 325.976562 344.820312 325.976562 C 343.785156 325.976562 342.90625 325.128906 342.90625 324.066406 L 342.90625 294.894531 C 342.90625 293.863281 343.785156 292.980469 344.820312 292.980469 Z M 351.527344 300.175781 C 352.558594 300.175781 353.441406 301.023438 353.441406 302.089844 L 353.441406 324.0625 C 353.441406 325.125 352.558594 325.976562 351.527344 325.976562 C 350.464844 325.976562 349.613281 325.125 349.613281 324.0625 L 349.613281 302.089844 C 349.613281 301.027344 350.464844 300.175781 351.527344 300.175781 Z M 351.527344 300.175781 " fill-opacity="1" fill-rule="evenodd"/><path fill="#ffbf00" d="M 341.054688 376.609375 L 348.25 376.609375 L 348.25 412.03125 L 341.054688 412.03125 Z M 341.054688 376.609375 " fill-opacity="1" fill-rule="nonzero"/><path fill="#ffbf00" d="M 475.222656 389.597656 C 387.3125 411.757812 325.453125 479.476562 270.632812 549.6875 C 257.09375 545.984375 244.222656 540.703125 232.203125 534.054688 C 290.699219 466.757812 370.53125 404.503906 475.222656 389.597656 Z M 475.222656 389.597656 " fill-opacity="1" fill-rule="evenodd"/><g clip-path="url(#8da29c8518)"><path fill="#ffbf00" d="M 479.894531 394.757812 C 411.992188 428.359375 368.554688 489.222656 333.527344 555.089844 C 328.03125 555.609375 322.507812 555.851562 316.890625 555.851562 C 308.574219 555.851562 300.410156 555.273438 292.425781 554.152344 C 334.863281 487.949219 394.75 426.238281 479.894531 394.761719 Z M 479.894531 394.757812 " fill-opacity="1" fill-rule="evenodd"/></g><g clip-path="url(#1db1573128)"><path fill="#ffbf00" d="M 484.902344 397.824219 C 444.472656 434.734375 420.277344 481.785156 404.128906 532.597656 C 393.019531 538.972656 381.152344 544.195312 368.675781 548.050781 C 392.960938 491.863281 429.597656 438.53125 484.902344 397.824219 Z M 484.902344 397.824219 " fill-opacity="1" fill-rule="evenodd"/></g><path fill="#ffbf00" d="M 462.410156 382.464844 C 363.910156 407.296875 272.484375 443.082031 203.976562 514.539062 C 195.292969 510.199219 183.636719 502.941406 176.929688 494.777344 C 247.746094 424.203125 349.21875 389.539062 462.410156 382.464844 Z M 462.410156 382.464844 " fill-opacity="1" fill-rule="evenodd"/><path fill="#ffbf00" d="M 382.335938 347.316406 C 384.523438 357.148438 389.984375 362.613281 398.847656 363.492188 C 397.390625 355.542969 392.414062 349.804688 382.335938 347.316406 Z M 382.730469 335.203125 C 384.945312 345.039062 390.410156 350.503906 399.242188 351.351562 C 397.785156 343.429688 392.835938 337.691406 382.730469 335.203125 Z M 387.464844 320.085938 C 386.949219 330.164062 390.710938 336.902344 399.027344 340.121094 C 399.757812 332.078125 396.507812 325.214844 387.464844 320.085938 Z M 387.464844 320.085938 " fill-opacity="1" fill-rule="evenodd"/><path fill="#ffbf00" d="M 417.941406 347.316406 C 415.753906 357.148438 410.292969 362.613281 401.429688 363.492188 C 402.886719 355.542969 407.863281 349.804688 417.941406 347.316406 Z M 417.546875 335.203125 C 415.332031 345.039062 409.867188 350.503906 401.03125 351.351562 C 402.492188 343.429688 407.4375 337.691406 417.546875 335.203125 Z M 412.8125 320.085938 C 413.328125 330.164062 409.5625 336.902344 401.246094 340.121094 C 400.519531 332.078125 403.765625 325.214844 412.8125 320.085938 Z M 412.8125 320.085938 " fill-opacity="1" fill-rule="evenodd"/><path fill="#ffbf00" d="M 393.992188 299.722656 C 394.933594 299.722656 395.660156 300.449219 395.660156 301.390625 L 395.660156 320.542969 C 395.660156 321.484375 394.933594 322.214844 393.992188 322.214844 C 393.082031 322.214844 392.320312 321.484375 392.320312 320.542969 L 392.320312 301.390625 C 392.320312 300.449219 393.082031 299.722656 393.992188 299.722656 Z M 400.246094 293.46875 C 401.183594 293.46875 401.914062 294.195312 401.914062 295.136719 L 401.914062 320.542969 C 401.914062 321.484375 401.1875 322.214844 400.246094 322.214844 C 399.335938 322.214844 398.605469 321.488281 398.605469 320.542969 L 398.605469 295.136719 C 398.605469 294.195312 399.335938 293.46875 400.246094 293.46875 Z M 406.101562 299.722656 C 407.011719 299.722656 407.773438 300.449219 407.773438 301.390625 L 407.773438 320.542969 C 407.773438 321.484375 407.011719 322.214844 406.101562 322.214844 C 405.191406 322.214844 404.433594 321.484375 404.433594 320.542969 L 404.433594 301.390625 C 404.433594 300.449219 405.191406 299.722656 406.101562 299.722656 Z M 406.101562 299.722656 " fill-opacity="1" fill-rule="evenodd"/><path fill="#ffbf00" d="M 396.996094 366.378906 L 403.25 366.378906 L 403.25 397.246094 L 396.996094 397.246094 Z M 396.996094 366.378906 " fill-opacity="1" fill-rule="nonzero"/><path fill="#ffbf00" d="M 169.003906 350.105469 C 171.007812 358.941406 175.894531 363.828125 183.820312 364.617188 C 182.511719 357.484375 178.050781 352.351562 169.003906 350.105469 Z M 169.398438 339.269531 C 171.371094 348.074219 176.257812 352.960938 184.183594 353.75 C 182.878906 346.644531 178.414062 341.488281 169.398438 339.269531 Z M 173.617188 325.761719 C 173.164062 334.777344 176.53125 340.789062 183.96875 343.671875 C 184.636719 336.476562 181.722656 330.316406 173.617188 325.761719 Z M 173.617188 325.761719 " fill-opacity="1" fill-rule="evenodd"/><path fill="#ffbf00" d="M 200.90625 350.105469 C 198.933594 358.941406 194.046875 363.828125 186.125 364.617188 C 187.429688 357.484375 191.894531 352.351562 200.90625 350.105469 Z M 200.542969 339.269531 C 198.570312 348.074219 193.683594 352.960938 185.761719 353.75 C 187.066406 346.644531 191.5 341.488281 200.542969 339.269531 Z M 196.324219 325.761719 C 196.78125 334.777344 193.410156 340.789062 185.972656 343.671875 C 185.304688 336.476562 188.21875 330.316406 196.324219 325.761719 Z M 196.324219 325.761719 " fill-opacity="1" fill-rule="evenodd"/><path fill="#ffbf00" d="M 179.476562 307.492188 C 180.296875 307.492188 180.964844 308.15625 180.964844 309.007812 L 180.964844 326.15625 C 180.964844 326.976562 180.296875 327.644531 179.476562 327.644531 C 178.65625 327.644531 177.988281 326.976562 177.988281 326.15625 L 177.988281 309.007812 C 177.988281 308.15625 178.65625 307.492188 179.476562 307.492188 Z M 185.0625 301.90625 C 185.910156 301.90625 186.578125 302.570312 186.578125 303.390625 L 186.578125 326.15625 C 186.578125 326.976562 185.910156 327.644531 185.0625 327.644531 C 184.242188 327.644531 183.574219 326.976562 183.574219 326.15625 L 183.574219 303.390625 C 183.574219 302.570312 184.242188 301.90625 185.0625 301.90625 Z M 190.3125 307.492188 C 191.132812 307.492188 191.800781 308.15625 191.800781 309.007812 L 191.800781 326.15625 C 191.800781 326.976562 191.132812 327.644531 190.3125 327.644531 C 189.492188 327.644531 188.796875 326.976562 188.796875 326.15625 L 188.796875 309.007812 C 188.796875 308.15625 189.492188 307.492188 190.3125 307.492188 Z M 190.3125 307.492188 " fill-opacity="1" fill-rule="evenodd"/><path fill="#ffbf00" d="M 182.148438 367.195312 L 187.734375 367.195312 L 187.734375 394.820312 L 182.148438 394.820312 Z M 182.148438 367.195312 " fill-opacity="1" fill-rule="nonzero"/></svg>