<svg 
  xmlns="http://www.w3.org/2000/svg" 
  xmlns:xlink="http://www.w3.org/1999/xlink" 
  width="900" 
  height="2000"
  zoomAndPan="magnify" 
  viewBox="20 200 500 500" 
  preserveAspectRatio="xMidYMid meet" 
  version="1.0"
>
  <defs>
    <clipPath id="19ef10eca3">
      <path d="M 0.246094 0 L 594.675781 0 L 594.675781 841.5 L 0.246094 841.5 Z M 0.246094 0" clip-rule="nonzero"/>
    </clipPath>
  </defs>
  <g clip-path="url(#19ef10eca3)">
    <path fill="#1a2a41" d="M 0.246094 0 L 595.214844 0 L 595.214844 841.5 L 0.246094 841.5 Z M 0.246094 0" fill-opacity="1" fill-rule="nonzero"/>
    <path fill="transparent" d="M 0.246094 0 L 595.214844 0 L 595.214844 841.5 L 0.246094 841.5 Z M 0.246094 0" fill-opacity="1" fill-rule="nonzero"/>
  </g>
  <path fill="#ffbf00" d="M 388.796875 310.6875 C 391.328125 308.15625 395.488281 308.15625 398.019531 310.6875 L 407.179688 319.847656 C 412.078125 325.003906 406.65625 329.792969 402.890625 333.359375 C 402.890625 333.359375 410.351562 341.742188 411.074219 343.554688 L 416.402344 338.230469 C 424.003906 330.628906 424.003906 318.289062 416.402344 310.6875 L 407.179688 301.464844 C 399.578125 293.863281 387.238281 293.863281 379.636719 301.464844 L 374.3125 306.855469 C 374.3125 306.855469 381.398438 311.863281 384.507812 314.976562 Z M 388.796875 310.6875 " fill-opacity="1" fill-rule="nonzero"/>
  <path fill="#ffbf00" d="M 400.554688 342.515625 L 375.351562 317.3125 C 369.050781 311.078125 358.332031 311.144531 352.289062 317.25 C 347.378906 322.273438 317.097656 352.101562 314.488281 355.441406 L 314.292969 355.25 L 284.738281 384.867188 C 308.328125 389.6875 328.238281 409.539062 333 433.195312 L 400.617188 365.578125 C 406.90625 359.582031 406.914062 348.519531 400.554688 342.515625 Z M 350.34375 392.726562 L 335.140625 407.925781 C 333.910156 409.226562 332.21875 409.875 330.53125 409.875 C 325.007812 410.070312 321.828125 402.601562 325.984375 398.769531 L 341.183594 383.570312 C 347.222656 377.527344 356.316406 386.6875 350.34375 392.726562 Z M 373.335938 369.734375 C 370.542969 371.875 363.59375 381.492188 359.566406 380.839844 C 353.980469 381.035156 350.796875 373.628906 354.953125 369.734375 L 364.179688 360.574219 C 370.152344 354.597656 379.3125 363.757812 373.335938 369.734375 Z M 386.132812 356.808594 C 384.753906 357.675781 382.859375 358.152344 381.261719 357.78125 C 380.0625 357.515625 378.75 356.878906 377.949219 355.960938 C 372.816406 351.222656 378.726562 342.648438 385.027344 345.375 C 389.769531 347.230469 390.414062 354.078125 386.132812 356.808594 Z M 386.132812 356.808594 " fill-opacity="1" fill-rule="nonzero"/>
  <path fill="#ffbf00" d="M 222.433594 450.378906 C 206.3125 450.707031 219.382812 484.910156 227.464844 490.40625 C 233.050781 498.613281 267.445312 511.53125 267.699219 495.359375 C 267.3125 491.796875 264.128906 489.230469 260.539062 489.609375 C 251.675781 490.570312 242.949219 487.519531 236.648438 481.222656 C 230.398438 474.96875 227.332031 466.324219 228.238281 457.5 C 228.597656 453.929688 226.003906 450.742188 222.433594 450.378906 Z M 222.433594 450.378906 " fill-opacity="1" fill-rule="nonzero"/>
  <path fill="#ffbf00" d="M 257.226562 550.460938 C 263.074219 550.296875 273.472656 551.335938 272.882812 542.769531 C 272.496094 539.203125 269.203125 536.632812 265.726562 537.011719 C 218.4375 543.386719 174.742188 499.882812 180.796875 452.597656 C 181.640625 444.203125 168.808594 442.796875 167.867188 451.273438 C 161.316406 502.699219 205.585938 551.679688 257.226562 550.460938 Z M 257.226562 550.460938 " fill-opacity="1" fill-rule="nonzero"/>
  <path fill="#ffbf00" d="M 270.902344 584.453125 C 193.980469 594.464844 123.78125 524.660156 133.335938 447.695312 C 134.203125 439.308594 121.277344 437.875 120.40625 446.371094 C 110.035156 531.726562 187.304688 608.277344 272.3125 597.367188 C 280.695312 596.390625 279.417969 583.609375 270.902344 584.453125 Z M 270.902344 584.453125 " fill-opacity="1" fill-rule="nonzero"/>
  <path fill="#ffbf00" d="M 327.8125 448.242188 C 327.617188 443.824219 326.773438 439.40625 325.605469 435.183594 L 325.539062 435.25 C 319.953125 415.4375 303.910156 399.394531 284.097656 393.808594 L 284.164062 393.742188 C 278.976562 392.335938 273.460938 391.351562 267.988281 391.535156 L 267.859375 391.664062 C 249.261719 390.191406 217.847656 404.351562 233.691406 426.351562 C 233.6875 426.886719 245.925781 438.855469 246.617188 439.601562 C 233.675781 459.941406 259.449219 485.660156 279.746094 472.730469 C 280.582031 473.523438 292.382812 485.535156 292.996094 485.722656 C 293.839844 486.304688 294.683594 486.957031 295.53125 487.410156 C 295.59375 487.472656 295.660156 487.472656 295.722656 487.539062 C 306.5 493.609375 318.121094 487.03125 322.617188 476.042969 C 326.101562 468.472656 328.03125 459.726562 327.683594 451.488281 L 327.8125 451.359375 C 327.8125 450.320312 327.878906 449.28125 327.8125 448.242188 Z M 269.742188 462.921875 C 262.242188 464.488281 254.832031 457.234375 256.425781 449.671875 L 256.492188 449.476562 L 269.871094 462.855469 Z M 312.160156 467.46875 C 310.449219 472.574219 306.925781 480.464844 300.53125 475.328125 L 244.019531 418.816406 C 241.679688 416.671875 242.136719 412.710938 244.539062 410.761719 C 271.21875 393.84375 309.488281 412.226562 314.105469 443.109375 C 314.234375 443.5 314.300781 443.890625 314.367188 444.34375 C 314.367188 444.539062 314.429688 444.800781 314.496094 445.058594 C 315.601562 452.269531 315.015625 459.867188 312.160156 467.46875 Z M 312.160156 467.46875 " fill-opacity="1" fill-rule="nonzero"/>
  <path fill="#ffbf00" d="M 478.046875 467.558594 L 419 408.511719 C 412.050781 401.5625 399.902344 401.5625 392.953125 408.511719 L 384.898438 416.566406 L 373.011719 404.679688 L 363.789062 413.839844 C 366.109375 416.175781 373.292969 423.300781 375.738281 425.726562 L 367.621094 433.78125 C 360.476562 440.992188 360.476562 452.683594 367.621094 459.828125 C 378.609375 470.871094 415.0625 507.234375 426.664062 518.871094 C 433.511719 526.003906 445.914062 526.050781 452.710938 518.871094 L 478.046875 493.605469 C 485.191406 486.71875 485.191406 474.378906 478.046875 467.558594 Z M 447.386719 455.28125 L 435.5 467.167969 L 419.390625 451.058594 L 431.277344 439.171875 Z M 402.113281 417.671875 C 404.191406 415.59375 407.828125 415.59375 409.84375 417.671875 L 422.117188 429.949219 L 410.167969 441.835938 L 394.058594 425.726562 Z M 376.84375 450.667969 C 371.324219 444.808594 381.375 439.355469 384.898438 434.949219 L 401.007812 451.058594 L 389.121094 462.945312 Z M 398.28125 472.105469 L 410.167969 460.21875 L 426.339844 476.328125 L 414.390625 488.277344 Z M 443.554688 509.714844 C 441.476562 511.726562 437.96875 511.792969 435.890625 509.714844 L 423.613281 497.4375 L 435.5 485.550781 L 451.609375 501.660156 Z M 468.820312 484.378906 L 460.765625 492.433594 L 444.660156 476.328125 L 456.609375 464.4375 L 468.820312 476.714844 C 470.964844 478.730469 470.964844 482.367188 468.820312 484.378906 Z M 468.820312 484.378906 " fill-opacity="1" fill-rule="nonzero"/>
  <path fill="#ffbf00" d="M 301.300781 332.96875 L 309.355469 324.914062 C 316.566406 317.769531 316.566406 306.078125 309.355469 298.867188 L 292.53125 281.976562 L 250.308594 239.820312 C 243.359375 232.871094 231.210938 232.871094 224.261719 239.820312 L 198.996094 265.152344 C 191.847656 271.972656 191.847656 284.316406 198.996094 291.203125 L 258.039062 350.246094 C 264.859375 357.390625 277.203125 357.390625 284.085938 350.246094 L 292.140625 342.191406 L 304.027344 354.078125 L 313.1875 344.855469 C 310.402344 342.070312 304.136719 335.804688 301.300781 332.96875 Z M 278.695312 286.589844 L 266.808594 298.476562 L 250.699219 282.367188 L 262.585938 270.480469 Z M 237.320312 247.421875 C 240.425781 246.542969 249.8125 258.300781 253.429688 261.320312 L 241.539062 273.207031 L 225.433594 257.101562 C 227.835938 255.214844 233.8125 246.964844 237.320312 247.421875 Z M 208.152344 281.976562 C 207.113281 281.003906 206.59375 279.640625 206.59375 278.144531 C 206.074219 274.703125 214.390625 268.597656 216.207031 266.257812 L 232.316406 282.367188 L 220.429688 294.253906 Z M 229.652344 303.476562 L 241.539062 291.589844 L 257.648438 307.699219 L 245.761719 319.585938 Z M 274.863281 341.023438 C 272.851562 343.101562 269.277344 343.101562 267.199219 341.023438 L 254.921875 328.746094 L 266.808594 316.859375 L 282.917969 332.96875 Z M 292.140625 323.808594 L 276.03125 307.699219 L 287.917969 295.75 L 300.195312 308.023438 C 302.273438 310.167969 302.273438 313.613281 300.195312 315.753906 Z M 292.140625 323.808594 " fill-opacity="1" fill-rule="nonzero"/>
</svg>
