<svg xmlns="http://www.w3.org/2000/svg" xmlns:xlink="http://www.w3.org/1999/xlink" width="900" zoomAndPan="magnify" viewBox="20 200 500 500" height="2000" preserveAspectRatio="xMidYMid meet" version="1.0"><defs><clipPath id="eee17d2192"><path d="M 0.246094 0 L 594.675781 0 L 594.675781 841.5 L 0.246094 841.5 Z M 0.246094 0 " clip-rule="nonzero"/></clipPath><clipPath id="75bf7ab0a4"><path d="M 120.304688 243.253906 L 474.738281 243.253906 L 474.738281 597.691406 L 120.304688 597.691406 Z M 120.304688 243.253906 " clip-rule="nonzero"/></clipPath></defs><g clip-path="url(#eee17d2192)"><path fill="#1a2a41" d="M 0.246094 0 L 595.214844 0 L 595.214844 841.5 L 0.246094 841.5 Z M 0.246094 0 " fill-opacity="1" fill-rule="nonzero"/><path fill="#1a2a41" d="M 0.246094 0 L 595.214844 0 L 595.214844 841.5 L 0.246094 841.5 Z M 0.246094 0 " fill-opacity="1" fill-rule="nonzero"/></g><g clip-path="url(#75bf7ab0a4)"><path fill="#ffbf00" d="M 154.621094 562.867188 C 158.84375 561.839844 162.730469 559.648438 166.0625 556.632812 L 166.0625 586.4375 L 154.621094 586.4375 Z M 131.742188 529.242188 C 131.742188 516.617188 139.429688 506.363281 148.902344 506.363281 C 158.375 506.363281 166.0625 516.617188 166.0625 529.242188 C 166.0625 541.863281 158.375 552.121094 148.902344 552.121094 C 139.429688 552.121094 131.742188 541.863281 131.742188 529.242188 Z M 143.183594 449.164062 C 143.183594 430.242188 156.007812 414.847656 171.78125 414.847656 C 187.554688 414.847656 200.378906 430.242188 200.378906 449.164062 C 200.378906 465.742188 190.546875 479.597656 177.5 482.789062 L 177.5 443.445312 L 166.0625 443.445312 L 166.0625 482.789062 C 153.011719 479.597656 143.183594 465.742188 143.183594 449.164062 Z M 177.5 498.25 C 183.644531 505.445312 191.644531 510.136719 200.378906 511.566406 L 200.378906 521.398438 L 177.5 548.097656 Z M 211.820312 449.164062 C 211.820312 443.15625 210.769531 437.433594 208.914062 432.183594 C 223.371094 433.882812 234.695312 448.539062 234.695312 466.324219 C 234.695312 485.25 221.871094 500.640625 206.097656 500.640625 C 198.882812 500.640625 192.023438 497.3125 186.792969 491.550781 C 201.453125 484.757812 211.820312 468.335938 211.820312 449.164062 Z M 188.941406 334.769531 L 269.015625 334.769531 L 269.015625 547.898438 C 263.296875 551.875 258.582031 557.304688 255.566406 563.851562 C 254.359375 563.671875 253.128906 563.582031 251.878906 563.582031 C 246.515625 556.433594 238.027344 552.121094 228.976562 552.121094 C 213.203125 552.121094 200.378906 564.945312 200.378906 580.71875 C 200.378906 582.640625 200.625 584.5625 201.003906 586.4375 L 177.5 586.4375 L 177.5 565.660156 L 211.820312 525.644531 L 211.820312 511.546875 C 231.1875 508.371094 246.136719 489.335938 246.136719 466.324219 C 246.136719 449.097656 237.757812 434.082031 225.449219 426.285156 L 234.695312 426.285156 L 234.695312 414.847656 L 223.257812 414.847656 L 223.257812 425.035156 C 218.050781 422.199219 212.242188 420.566406 206.097656 420.566406 C 205.117188 420.566406 204.109375 420.632812 203.082031 420.722656 C 199.304688 415.292969 194.480469 410.890625 188.941406 407.875 Z M 383.410156 278.824219 L 383.410156 391.96875 L 349.089844 391.96875 L 349.089844 414.847656 L 337.652344 414.847656 L 337.652344 552.210938 C 332.667969 552.210938 327.6875 553.460938 323.375 555.984375 C 315.84375 546.421875 304.273438 540.679688 291.894531 540.679688 C 287.941406 540.679688 284.097656 541.261719 280.453125 542.332031 L 280.453125 299.425781 Z M 417.726562 369.089844 L 429.167969 369.089844 L 429.167969 391.96875 L 417.726562 391.96875 Z M 360.53125 414.847656 L 360.53125 403.40625 L 440.605469 403.40625 L 440.605469 414.847656 Z M 406.289062 449.164062 L 429.167969 449.164062 L 429.167969 564.09375 C 426.0625 563.648438 422.910156 563.425781 419.671875 563.738281 C 416.632812 557.257812 411.964844 551.894531 406.289062 547.941406 Z M 383.410156 540.679688 C 379.476562 540.679688 375.632812 541.328125 371.96875 542.421875 L 371.96875 449.164062 L 394.847656 449.164062 L 394.847656 542.332031 C 391.207031 541.261719 387.363281 540.679688 383.410156 540.679688 Z M 452.046875 426.285156 L 452.046875 575.78125 C 448.738281 572.382812 444.875 569.570312 440.605469 567.535156 L 440.605469 437.726562 L 360.53125 437.726562 L 360.53125 547.941406 C 357.335938 550.199219 354.386719 552.855469 351.929688 555.984375 C 351.035156 555.449219 350.050781 555.003906 349.089844 554.578125 L 349.089844 426.285156 Z M 211.820312 580.71875 C 211.820312 571.246094 219.503906 563.558594 228.976562 563.558594 C 235.167969 563.558594 240.886719 566.910156 243.925781 572.296875 L 245.710938 575.421875 L 251.855469 575 C 253.53125 575 255.296875 575.3125 257.285156 575.980469 L 262.828125 577.859375 L 264.570312 572.25 C 268.300781 560.207031 279.269531 552.121094 291.894531 552.121094 C 302.304688 552.121094 311.890625 557.792969 316.941406 566.910156 L 320.515625 573.390625 L 325.878906 568.296875 C 332.335938 562.195312 342.96875 562.195312 349.425781 568.296875 L 354.789062 573.390625 L 358.363281 566.910156 C 363.414062 557.792969 372.996094 552.121094 383.410156 552.121094 C 395.832031 552.121094 406.757812 560.050781 410.601562 571.871094 L 412.210938 576.808594 L 417.28125 575.691406 C 428.609375 573.167969 439.691406 577.835938 446.191406 586.4375 L 212.933594 586.4375 C 212.289062 584.605469 211.820312 582.683594 211.820312 580.71875 Z M 463.484375 586.4375 L 463.484375 414.847656 L 452.046875 414.847656 L 452.046875 391.96875 L 440.605469 391.96875 L 440.605469 357.648438 L 429.167969 357.648438 L 429.167969 334.769531 L 417.726562 334.769531 L 417.726562 357.648438 L 406.289062 357.648438 L 406.289062 391.96875 L 394.847656 391.96875 L 394.847656 264.882812 L 360.53125 271.742188 L 360.53125 254.695312 L 349.089844 254.695312 L 349.089844 274.042969 L 337.652344 276.324219 L 337.652344 243.253906 L 326.210938 243.253906 L 326.210938 278.601562 L 314.773438 280.902344 L 314.773438 254.695312 L 303.332031 254.695312 L 303.332031 283.183594 L 269.015625 290.042969 L 269.015625 323.332031 L 166.0625 323.332031 L 166.0625 334.769531 L 177.5 334.769531 L 177.5 403.945312 C 175.625 403.609375 173.722656 403.40625 171.78125 403.40625 C 149.707031 403.40625 131.742188 423.941406 131.742188 449.164062 C 131.742188 472.179688 146.691406 491.214844 166.0625 494.386719 L 166.0625 501.847656 C 161.28125 497.515625 155.335938 494.921875 148.902344 494.921875 C 133.128906 494.921875 120.304688 510.316406 120.304688 529.242188 C 120.304688 545.820312 130.132812 559.671875 143.183594 562.867188 L 143.183594 586.4375 L 120.304688 586.4375 L 120.304688 597.878906 L 474.925781 597.878906 L 474.925781 586.4375 L 463.484375 586.4375 " fill-opacity="1" fill-rule="nonzero"/></g><path fill="#ffbf00" d="M 314.773438 346.210938 L 303.332031 346.210938 L 303.332031 323.332031 L 314.773438 323.332031 Z M 326.210938 311.890625 L 291.894531 311.890625 L 291.894531 357.648438 L 326.210938 357.648438 L 326.210938 311.890625 " fill-opacity="1" fill-rule="nonzero"/><path fill="#ffbf00" d="M 314.773438 403.40625 L 303.332031 403.40625 L 303.332031 380.527344 L 314.773438 380.527344 Z M 326.210938 369.089844 L 291.894531 369.089844 L 291.894531 414.847656 L 326.210938 414.847656 L 326.210938 369.089844 " fill-opacity="1" fill-rule="nonzero"/><path fill="#ffbf00" d="M 314.773438 460.605469 L 303.332031 460.605469 L 303.332031 437.726562 L 314.773438 437.726562 Z M 326.210938 426.285156 L 291.894531 426.285156 L 291.894531 472.042969 L 326.210938 472.042969 L 326.210938 426.285156 " fill-opacity="1" fill-rule="nonzero"/><path fill="#ffbf00" d="M 314.773438 517.800781 L 303.332031 517.800781 L 303.332031 494.921875 L 314.773438 494.921875 Z M 326.210938 483.484375 L 291.894531 483.484375 L 291.894531 529.242188 L 326.210938 529.242188 L 326.210938 483.484375 " fill-opacity="1" fill-rule="nonzero"/><path fill="#ffbf00" d="M 360.53125 346.210938 L 349.089844 346.210938 L 349.089844 323.332031 L 360.53125 323.332031 Z M 371.96875 311.890625 L 337.652344 311.890625 L 337.652344 357.648438 L 371.96875 357.648438 L 371.96875 311.890625 " fill-opacity="1" fill-rule="nonzero"/><path fill="#ffbf00" d="M 211.820312 346.210938 L 200.378906 346.210938 L 200.378906 357.648438 L 211.820312 357.648438 L 211.820312 346.210938 " fill-opacity="1" fill-rule="nonzero"/><path fill="#ffbf00" d="M 234.695312 346.210938 L 223.257812 346.210938 L 223.257812 357.648438 L 234.695312 357.648438 L 234.695312 346.210938 " fill-opacity="1" fill-rule="nonzero"/><path fill="#ffbf00" d="M 257.574219 346.210938 L 246.136719 346.210938 L 246.136719 357.648438 L 257.574219 357.648438 L 257.574219 346.210938 " fill-opacity="1" fill-rule="nonzero"/><path fill="#ffbf00" d="M 211.820312 369.089844 L 200.378906 369.089844 L 200.378906 380.527344 L 211.820312 380.527344 L 211.820312 369.089844 " fill-opacity="1" fill-rule="nonzero"/><path fill="#ffbf00" d="M 234.695312 369.089844 L 223.257812 369.089844 L 223.257812 380.527344 L 234.695312 380.527344 L 234.695312 369.089844 " fill-opacity="1" fill-rule="nonzero"/><path fill="#ffbf00" d="M 257.574219 369.089844 L 246.136719 369.089844 L 246.136719 380.527344 L 257.574219 380.527344 L 257.574219 369.089844 " fill-opacity="1" fill-rule="nonzero"/><path fill="#ffbf00" d="M 234.695312 391.96875 L 223.257812 391.96875 L 223.257812 403.40625 L 234.695312 403.40625 L 234.695312 391.96875 " fill-opacity="1" fill-rule="nonzero"/><path fill="#ffbf00" d="M 211.820312 391.96875 L 200.378906 391.96875 L 200.378906 403.40625 L 211.820312 403.40625 L 211.820312 391.96875 " fill-opacity="1" fill-rule="nonzero"/><path fill="#ffbf00" d="M 257.574219 391.96875 L 246.136719 391.96875 L 246.136719 403.40625 L 257.574219 403.40625 L 257.574219 391.96875 " fill-opacity="1" fill-rule="nonzero"/><path fill="#ffbf00" d="M 257.574219 414.847656 L 246.136719 414.847656 L 246.136719 426.285156 L 257.574219 426.285156 L 257.574219 414.847656 " fill-opacity="1" fill-rule="nonzero"/></svg>