<svg xmlns="http://www.w3.org/2000/svg" xmlns:xlink="http://www.w3.org/1999/xlink" wwidth="900" zoomAndPan="magnify" viewBox="20 200 500 500" height="2000" preserveAspectRatio="xMidYMid meet" version="1.0"><defs><clipPath id="9acbb8cf6f"><path d="M 0.246094 0 L 594.675781 0 L 594.675781 841.5 L 0.246094 841.5 Z M 0.246094 0 " clip-rule="nonzero"/></clipPath><clipPath id="4ac680b575"><path d="M 207 217.160156 L 388 217.160156 L 388 468 L 207 468 Z M 207 217.160156 " clip-rule="nonzero"/></clipPath></defs><g clip-path="url(#9acbb8cf6f)"><path fill="#1a2a41" d="M 0.246094 0 L 595.214844 0 L 595.214844 841.5 L 0.246094 841.5 Z M 0.246094 0 " fill-opacity="1" fill-rule="nonzero"/><path fill="#1a2a41" d="M 0.246094 0 L 595.214844 0 L 595.214844 841.5 L 0.246094 841.5 Z M 0.246094 0 " fill-opacity="1" fill-rule="nonzero"/></g><path fill="#ffbf00" d="M 174.136719 542.941406 C 198.417969 542.941406 221.003906 535.046875 235.875 521.828125 C 250.753906 535.046875 273.335938 542.941406 297.613281 542.941406 C 321.894531 542.941406 344.484375 535.046875 359.359375 521.820312 C 374.226562 535.046875 396.808594 542.941406 421.09375 542.941406 C 450.246094 542.941406 476.957031 531.5625 490.800781 513.238281 C 494.136719 508.832031 493.261719 502.566406 488.859375 499.246094 C 484.464844 495.917969 478.195312 496.777344 474.859375 501.1875 C 464.867188 514.410156 443.765625 522.953125 421.09375 522.953125 C 398.425781 522.953125 377.324219 514.410156 367.328125 501.1875 C 365.441406 498.6875 362.496094 497.21875 359.359375 497.21875 C 356.226562 497.21875 353.273438 498.6875 351.386719 501.1875 C 341.386719 514.410156 320.277344 522.953125 297.613281 522.953125 C 274.945312 522.953125 253.839844 514.410156 243.847656 501.1875 C 240.074219 496.191406 231.679688 496.191406 227.90625 501.1875 C 217.910156 514.410156 196.804688 522.953125 174.136719 522.953125 C 151.460938 522.953125 130.359375 514.410156 120.367188 501.1875 C 117.035156 496.777344 110.765625 495.90625 106.371094 499.246094 C 101.964844 502.566406 101.09375 508.832031 104.425781 513.238281 C 118.273438 531.5625 144.984375 542.941406 174.136719 542.941406 " fill-opacity="1" fill-rule="nonzero"/><path fill="#ffbf00" d="M 474.859375 582.214844 C 464.867188 595.4375 443.765625 603.980469 421.09375 603.980469 C 398.425781 603.980469 377.324219 595.4375 367.328125 582.214844 C 365.441406 579.71875 362.496094 578.25 359.359375 578.25 C 356.226562 578.25 353.273438 579.71875 351.386719 582.214844 C 341.386719 595.4375 320.277344 603.980469 297.613281 603.980469 C 274.945312 603.980469 253.839844 595.4375 243.847656 582.214844 C 240.074219 577.21875 231.679688 577.21875 227.90625 582.214844 C 217.910156 595.4375 196.804688 603.980469 174.136719 603.980469 C 151.460938 603.980469 130.359375 595.4375 120.367188 582.214844 C 117.035156 577.800781 110.765625 576.929688 106.371094 580.269531 C 101.964844 583.597656 101.09375 589.863281 104.425781 594.269531 C 118.273438 612.59375 144.984375 623.972656 174.136719 623.972656 C 198.417969 623.972656 221.003906 616.078125 235.875 602.855469 C 250.753906 616.078125 273.335938 623.972656 297.613281 623.972656 C 321.894531 623.972656 344.484375 616.078125 359.359375 602.851562 C 374.226562 616.078125 396.808594 623.972656 421.09375 623.972656 C 450.246094 623.972656 476.957031 612.59375 490.800781 594.269531 C 494.136719 589.863281 493.261719 583.597656 488.859375 580.269531 C 484.464844 576.941406 478.195312 577.800781 474.859375 582.214844 " fill-opacity="1" fill-rule="nonzero"/><g clip-path="url(#4ac680b575)"><path fill="#ffbf00" d="M 237.09375 369.339844 C 241.515625 369.339844 245.089844 372.917969 245.089844 377.335938 C 245.089844 406.304688 268.652344 429.867188 297.609375 429.867188 C 302.027344 429.867188 305.605469 433.441406 305.605469 437.863281 C 305.605469 442.28125 302.027344 445.859375 297.609375 445.859375 C 259.828125 445.859375 229.097656 415.121094 229.097656 377.335938 C 229.097656 372.917969 232.675781 369.339844 237.09375 369.339844 Z M 297.609375 467.167969 C 347.222656 467.167969 387.441406 426.945312 387.441406 377.328125 C 387.441406 303.441406 297.609375 217.164062 297.609375 217.164062 C 297.609375 217.164062 207.789062 302.566406 207.789062 377.328125 C 207.789062 426.945312 247.988281 467.167969 297.609375 467.167969 " fill-opacity="1" fill-rule="nonzero"/></g></svg>